<mxfile host="Electron" agent="Mozilla/5.0 (Windows NT 10.0; Win64; x64) AppleWebKit/537.36 (KHTML, like Gecko) draw.io/24.7.17 Chrome/128.0.6613.36 Electron/32.0.1 Safari/537.36" version="24.7.17">
  <diagram name="Page-1" id="2YBvvXClWsGukQMizWep">
    <mxGraphModel dx="1562" dy="917" grid="1" gridSize="10" guides="1" tooltips="1" connect="1" arrows="1" fold="1" page="1" pageScale="1" pageWidth="850" pageHeight="1100" math="0" shadow="0">
      <root>
        <mxCell id="0" />
        <mxCell id="1" parent="0" />
        <mxCell id="axHq2Q7Sg5OyybKyalKu-66" value="" style="whiteSpace=wrap;html=1;fillColor=none;" vertex="1" parent="1">
          <mxGeometry x="60" y="280" width="430" height="470" as="geometry" />
        </mxCell>
        <mxCell id="axHq2Q7Sg5OyybKyalKu-49" value="Database" style="shape=umlLifeline;perimeter=lifelinePerimeter;whiteSpace=wrap;html=1;container=0;dropTarget=0;collapsible=0;recursiveResize=0;outlineConnect=0;portConstraint=eastwest;newEdgeStyle={&quot;edgeStyle&quot;:&quot;elbowEdgeStyle&quot;,&quot;elbow&quot;:&quot;vertical&quot;,&quot;curved&quot;:0,&quot;rounded&quot;:0};" vertex="1" parent="1">
          <mxGeometry x="395" y="60" width="100" height="710" as="geometry" />
        </mxCell>
        <mxCell id="axHq2Q7Sg5OyybKyalKu-50" value="" style="html=1;points=[];perimeter=orthogonalPerimeter;outlineConnect=0;targetShapes=umlLifeline;portConstraint=eastwest;newEdgeStyle={&quot;edgeStyle&quot;:&quot;elbowEdgeStyle&quot;,&quot;elbow&quot;:&quot;vertical&quot;,&quot;curved&quot;:0,&quot;rounded&quot;:0};" vertex="1" parent="axHq2Q7Sg5OyybKyalKu-49">
          <mxGeometry x="45" y="86" width="10" height="70" as="geometry" />
        </mxCell>
        <mxCell id="axHq2Q7Sg5OyybKyalKu-42" value="User" style="shape=umlLifeline;perimeter=lifelinePerimeter;whiteSpace=wrap;html=1;container=0;dropTarget=0;collapsible=0;recursiveResize=0;outlineConnect=0;portConstraint=eastwest;newEdgeStyle={&quot;edgeStyle&quot;:&quot;elbowEdgeStyle&quot;,&quot;elbow&quot;:&quot;vertical&quot;,&quot;curved&quot;:0,&quot;rounded&quot;:0};" vertex="1" parent="1">
          <mxGeometry x="60" y="60" width="100" height="710" as="geometry" />
        </mxCell>
        <mxCell id="axHq2Q7Sg5OyybKyalKu-43" value="" style="html=1;points=[];perimeter=orthogonalPerimeter;outlineConnect=0;targetShapes=umlLifeline;portConstraint=eastwest;newEdgeStyle={&quot;edgeStyle&quot;:&quot;elbowEdgeStyle&quot;,&quot;elbow&quot;:&quot;vertical&quot;,&quot;curved&quot;:0,&quot;rounded&quot;:0};" vertex="1" parent="axHq2Q7Sg5OyybKyalKu-42">
          <mxGeometry x="45" y="70" width="10" height="580" as="geometry" />
        </mxCell>
        <mxCell id="axHq2Q7Sg5OyybKyalKu-44" value="Website" style="shape=umlLifeline;perimeter=lifelinePerimeter;whiteSpace=wrap;html=1;container=0;dropTarget=0;collapsible=0;recursiveResize=0;outlineConnect=0;portConstraint=eastwest;newEdgeStyle={&quot;edgeStyle&quot;:&quot;elbowEdgeStyle&quot;,&quot;elbow&quot;:&quot;vertical&quot;,&quot;curved&quot;:0,&quot;rounded&quot;:0};" vertex="1" parent="1">
          <mxGeometry x="240" y="60" width="100" height="710" as="geometry" />
        </mxCell>
        <mxCell id="axHq2Q7Sg5OyybKyalKu-45" value="" style="html=1;points=[];perimeter=orthogonalPerimeter;outlineConnect=0;targetShapes=umlLifeline;portConstraint=eastwest;newEdgeStyle={&quot;edgeStyle&quot;:&quot;elbowEdgeStyle&quot;,&quot;elbow&quot;:&quot;vertical&quot;,&quot;curved&quot;:0,&quot;rounded&quot;:0};" vertex="1" parent="axHq2Q7Sg5OyybKyalKu-44">
          <mxGeometry x="45" y="80" width="10" height="580" as="geometry" />
        </mxCell>
        <mxCell id="axHq2Q7Sg5OyybKyalKu-46" value="User Click &quot;Profile&quot; Button" style="html=1;verticalAlign=bottom;endArrow=block;edgeStyle=elbowEdgeStyle;elbow=vertical;curved=0;rounded=0;" edge="1" parent="1" source="axHq2Q7Sg5OyybKyalKu-43" target="axHq2Q7Sg5OyybKyalKu-45">
          <mxGeometry relative="1" as="geometry">
            <mxPoint x="215" y="150" as="sourcePoint" />
            <Array as="points">
              <mxPoint x="200" y="140" />
            </Array>
          </mxGeometry>
        </mxCell>
        <mxCell id="axHq2Q7Sg5OyybKyalKu-47" value="Return User Information" style="html=1;verticalAlign=bottom;endArrow=open;dashed=1;endSize=8;edgeStyle=elbowEdgeStyle;elbow=vertical;curved=0;rounded=0;exitX=0;exitY=0.486;exitDx=0;exitDy=0;exitPerimeter=0;" edge="1" parent="1">
          <mxGeometry relative="1" as="geometry">
            <mxPoint x="291.63" y="196" as="targetPoint" />
            <Array as="points">
              <mxPoint x="406.63" y="196" />
            </Array>
            <mxPoint x="438.38" y="196.0200000000001" as="sourcePoint" />
          </mxGeometry>
        </mxCell>
        <mxCell id="axHq2Q7Sg5OyybKyalKu-58" value="&lt;span style=&quot;font-size: 11px; background-color: rgb(24, 20, 29);&quot;&gt;Send Pull Request&lt;/span&gt;" style="text;html=1;align=center;verticalAlign=middle;resizable=0;points=[];autosize=1;strokeColor=none;fillColor=none;" vertex="1" parent="1">
          <mxGeometry x="315" y="140" width="110" height="30" as="geometry" />
        </mxCell>
        <mxCell id="axHq2Q7Sg5OyybKyalKu-59" value="" style="html=1;verticalAlign=bottom;endArrow=block;edgeStyle=elbowEdgeStyle;elbow=vertical;curved=0;rounded=0;" edge="1" parent="1">
          <mxGeometry x="1" y="-136" relative="1" as="geometry">
            <mxPoint x="295.6122222222223" y="167.71" as="sourcePoint" />
            <Array as="points">
              <mxPoint x="359.39" y="167.71" />
            </Array>
            <mxPoint x="440.39" y="167.71" as="targetPoint" />
            <mxPoint x="65" y="-16" as="offset" />
          </mxGeometry>
        </mxCell>
        <mxCell id="axHq2Q7Sg5OyybKyalKu-60" value="" style="html=1;verticalAlign=bottom;endArrow=block;edgeStyle=elbowEdgeStyle;elbow=vertical;curved=0;rounded=0;" edge="1" parent="1">
          <mxGeometry relative="1" as="geometry">
            <mxPoint x="285" y="220.14" as="sourcePoint" />
            <Array as="points" />
            <mxPoint x="115" y="220.14" as="targetPoint" />
          </mxGeometry>
        </mxCell>
        <mxCell id="axHq2Q7Sg5OyybKyalKu-61" value="&lt;span style=&quot;font-size: 11px; background-color: rgb(24, 20, 29);&quot;&gt;Display Pulled Information&amp;nbsp;&lt;/span&gt;&lt;div&gt;&lt;span style=&quot;font-size: 11px; background-color: rgb(24, 20, 29);&quot;&gt;to User and Greeting&lt;br&gt;&lt;/span&gt;&lt;/div&gt;" style="text;html=1;align=center;verticalAlign=middle;resizable=0;points=[];autosize=1;strokeColor=none;fillColor=none;" vertex="1" parent="1">
          <mxGeometry x="126" y="183" width="150" height="40" as="geometry" />
        </mxCell>
        <mxCell id="axHq2Q7Sg5OyybKyalKu-64" value="" style="html=1;verticalAlign=bottom;endArrow=block;edgeStyle=elbowEdgeStyle;elbow=vertical;curved=0;rounded=0;" edge="1" parent="1">
          <mxGeometry relative="1" as="geometry">
            <mxPoint x="285" y="267.14" as="sourcePoint" />
            <Array as="points" />
            <mxPoint x="115" y="267.14" as="targetPoint" />
          </mxGeometry>
        </mxCell>
        <mxCell id="axHq2Q7Sg5OyybKyalKu-65" value="&lt;span style=&quot;font-size: 11px; background-color: rgb(24, 20, 29);&quot;&gt;Display My Adpotion, Filter,&lt;/span&gt;&lt;div&gt;&lt;span style=&quot;font-size: 11px; background-color: rgb(24, 20, 29);&quot;&gt;and Favourite/Save Animals&lt;/span&gt;&lt;/div&gt;" style="text;html=1;align=center;verticalAlign=middle;resizable=0;points=[];autosize=1;strokeColor=none;fillColor=none;" vertex="1" parent="1">
          <mxGeometry x="121" y="230" width="160" height="40" as="geometry" />
        </mxCell>
        <mxCell id="axHq2Q7Sg5OyybKyalKu-67" value="Alt" style="rounded=0;whiteSpace=wrap;html=1;fillColor=none;" vertex="1" parent="1">
          <mxGeometry x="60" y="280" width="40" height="30" as="geometry" />
        </mxCell>
        <mxCell id="axHq2Q7Sg5OyybKyalKu-68" value="" style="html=1;points=[];perimeter=orthogonalPerimeter;outlineConnect=0;targetShapes=umlLifeline;portConstraint=eastwest;newEdgeStyle={&quot;edgeStyle&quot;:&quot;elbowEdgeStyle&quot;,&quot;elbow&quot;:&quot;vertical&quot;,&quot;curved&quot;:0,&quot;rounded&quot;:0};" vertex="1" parent="1">
          <mxGeometry x="440" y="300" width="10" height="420" as="geometry" />
        </mxCell>
        <mxCell id="axHq2Q7Sg5OyybKyalKu-69" value="&lt;span style=&quot;font-size: 11px; background-color: rgb(24, 20, 29);&quot;&gt;If User Click&amp;nbsp;&lt;/span&gt;&lt;span style=&quot;background-color: rgb(24, 20, 29); font-size: 11px;&quot;&gt;Different&amp;nbsp;&lt;/span&gt;&lt;div&gt;&lt;span style=&quot;background-color: rgb(24, 20, 29); font-size: 11px;&quot;&gt;&quot;My Adoption&quot; Tab&lt;/span&gt;&lt;/div&gt;" style="text;html=1;align=left;verticalAlign=middle;resizable=0;points=[];autosize=1;strokeColor=none;fillColor=none;" vertex="1" parent="1">
          <mxGeometry x="120" y="275" width="130" height="40" as="geometry" />
        </mxCell>
        <mxCell id="axHq2Q7Sg5OyybKyalKu-80" value="Return Information" style="html=1;verticalAlign=bottom;endArrow=open;dashed=1;endSize=8;edgeStyle=elbowEdgeStyle;elbow=vertical;curved=0;rounded=0;exitX=0;exitY=0.486;exitDx=0;exitDy=0;exitPerimeter=0;" edge="1" parent="1">
          <mxGeometry relative="1" as="geometry">
            <mxPoint x="294.24" y="346" as="targetPoint" />
            <Array as="points">
              <mxPoint x="409.24" y="346" />
            </Array>
            <mxPoint x="440.99" y="346.0200000000001" as="sourcePoint" />
          </mxGeometry>
        </mxCell>
        <mxCell id="axHq2Q7Sg5OyybKyalKu-81" value="&lt;span style=&quot;font-size: 11px; background-color: rgb(24, 20, 29);&quot;&gt;Send Pull Request&lt;/span&gt;" style="text;html=1;align=center;verticalAlign=middle;resizable=0;points=[];autosize=1;strokeColor=none;fillColor=none;" vertex="1" parent="1">
          <mxGeometry x="314.61" y="290" width="110" height="30" as="geometry" />
        </mxCell>
        <mxCell id="axHq2Q7Sg5OyybKyalKu-82" value="" style="html=1;verticalAlign=bottom;endArrow=block;edgeStyle=elbowEdgeStyle;elbow=vertical;curved=0;rounded=0;" edge="1" parent="1">
          <mxGeometry x="1" y="-136" relative="1" as="geometry">
            <mxPoint x="295.2222222222223" y="317.71000000000004" as="sourcePoint" />
            <Array as="points">
              <mxPoint x="359" y="317.71000000000004" />
            </Array>
            <mxPoint x="440" y="317.71000000000004" as="targetPoint" />
            <mxPoint x="65" y="-16" as="offset" />
          </mxGeometry>
        </mxCell>
        <mxCell id="axHq2Q7Sg5OyybKyalKu-83" value="" style="html=1;verticalAlign=bottom;endArrow=block;edgeStyle=elbowEdgeStyle;elbow=vertical;curved=0;rounded=0;" edge="1" parent="1">
          <mxGeometry relative="1" as="geometry">
            <mxPoint x="286" y="397.14" as="sourcePoint" />
            <Array as="points" />
            <mxPoint x="116" y="397.14" as="targetPoint" />
          </mxGeometry>
        </mxCell>
        <mxCell id="axHq2Q7Sg5OyybKyalKu-84" value="&lt;span style=&quot;font-size: 11px; background-color: rgb(24, 20, 29);&quot;&gt;Display Pulled Information&amp;nbsp;&lt;/span&gt;&lt;div&gt;&lt;span style=&quot;font-size: 11px; background-color: rgb(24, 20, 29);&quot;&gt;to User&lt;br&gt;&lt;/span&gt;&lt;/div&gt;" style="text;html=1;align=center;verticalAlign=middle;resizable=0;points=[];autosize=1;strokeColor=none;fillColor=none;" vertex="1" parent="1">
          <mxGeometry x="127" y="360" width="150" height="40" as="geometry" />
        </mxCell>
        <mxCell id="axHq2Q7Sg5OyybKyalKu-85" value="" style="endArrow=none;dashed=1;html=1;rounded=0;" edge="1" parent="1">
          <mxGeometry width="50" height="50" relative="1" as="geometry">
            <mxPoint x="60" y="420" as="sourcePoint" />
            <mxPoint x="490" y="420" as="targetPoint" />
          </mxGeometry>
        </mxCell>
        <mxCell id="axHq2Q7Sg5OyybKyalKu-99" value="Return Result" style="html=1;verticalAlign=bottom;endArrow=open;dashed=1;endSize=8;edgeStyle=elbowEdgeStyle;elbow=vertical;curved=0;rounded=0;" edge="1" parent="1">
          <mxGeometry x="0.0014" relative="1" as="geometry">
            <mxPoint x="293.25" y="686" as="targetPoint" />
            <Array as="points">
              <mxPoint x="408.25" y="686" />
            </Array>
            <mxPoint x="442.75" y="686" as="sourcePoint" />
            <mxPoint as="offset" />
          </mxGeometry>
        </mxCell>
        <mxCell id="axHq2Q7Sg5OyybKyalKu-102" value="&lt;span style=&quot;font-size: 11px; background-color: rgb(24, 20, 29);&quot;&gt;User Select the Filter Form&lt;/span&gt;" style="text;html=1;align=center;verticalAlign=middle;resizable=0;points=[];autosize=1;strokeColor=none;fillColor=none;" vertex="1" parent="1">
          <mxGeometry x="125" y="606" width="150" height="30" as="geometry" />
        </mxCell>
        <mxCell id="axHq2Q7Sg5OyybKyalKu-103" value="" style="html=1;verticalAlign=bottom;endArrow=block;edgeStyle=elbowEdgeStyle;elbow=vertical;curved=0;rounded=0;" edge="1" parent="1">
          <mxGeometry x="1" y="-136" relative="1" as="geometry">
            <mxPoint x="115" y="636" as="sourcePoint" />
            <Array as="points">
              <mxPoint x="200" y="636" />
            </Array>
            <mxPoint x="285" y="636" as="targetPoint" />
            <mxPoint x="65" y="-16" as="offset" />
          </mxGeometry>
        </mxCell>
        <mxCell id="axHq2Q7Sg5OyybKyalKu-104" value="&lt;span style=&quot;font-size: 11px; background-color: rgb(24, 20, 29);&quot;&gt;Query pets matching criteria&lt;/span&gt;" style="text;html=1;align=center;verticalAlign=middle;resizable=0;points=[];autosize=1;strokeColor=none;fillColor=none;" vertex="1" parent="1">
          <mxGeometry x="288" y="626" width="160" height="30" as="geometry" />
        </mxCell>
        <mxCell id="axHq2Q7Sg5OyybKyalKu-105" value="" style="html=1;verticalAlign=bottom;endArrow=block;edgeStyle=elbowEdgeStyle;elbow=vertical;curved=0;rounded=0;" edge="1" parent="1">
          <mxGeometry x="1" y="-136" relative="1" as="geometry">
            <mxPoint x="295.6122222222223" y="654" as="sourcePoint" />
            <Array as="points">
              <mxPoint x="359.39" y="654" />
            </Array>
            <mxPoint x="440.39" y="654" as="targetPoint" />
            <mxPoint x="65" y="-16" as="offset" />
          </mxGeometry>
        </mxCell>
        <mxCell id="axHq2Q7Sg5OyybKyalKu-106" value="&lt;span style=&quot;font-size: 11px; background-color: rgb(24, 20, 29);&quot;&gt;Show Filter Bar&amp;nbsp;&lt;/span&gt;&lt;div&gt;&lt;span style=&quot;font-size: 11px; background-color: rgb(24, 20, 29);&quot;&gt;and All Favourite Pets&lt;/span&gt;&lt;/div&gt;" style="text;html=1;align=center;verticalAlign=middle;resizable=0;points=[];autosize=1;strokeColor=none;fillColor=none;" vertex="1" parent="1">
          <mxGeometry x="135" y="527" width="130" height="40" as="geometry" />
        </mxCell>
        <mxCell id="axHq2Q7Sg5OyybKyalKu-107" value="" style="html=1;verticalAlign=bottom;endArrow=block;edgeStyle=elbowEdgeStyle;elbow=vertical;curved=0;rounded=0;" edge="1" parent="1">
          <mxGeometry relative="1" as="geometry">
            <mxPoint x="285" y="567" as="sourcePoint" />
            <Array as="points" />
            <mxPoint x="115" y="567" as="targetPoint" />
          </mxGeometry>
        </mxCell>
        <mxCell id="axHq2Q7Sg5OyybKyalKu-108" value="&lt;span style=&quot;font-size: 11px; background-color: rgb(24, 20, 29);&quot;&gt;Display Filtered Result&lt;/span&gt;" style="text;html=1;align=center;verticalAlign=middle;resizable=0;points=[];autosize=1;strokeColor=none;fillColor=none;" vertex="1" parent="1">
          <mxGeometry x="135" y="676" width="130" height="30" as="geometry" />
        </mxCell>
        <mxCell id="axHq2Q7Sg5OyybKyalKu-109" value="" style="html=1;verticalAlign=bottom;endArrow=block;edgeStyle=elbowEdgeStyle;elbow=vertical;curved=0;rounded=0;" edge="1" parent="1">
          <mxGeometry relative="1" as="geometry">
            <mxPoint x="285" y="700" as="sourcePoint" />
            <Array as="points" />
            <mxPoint x="115" y="700" as="targetPoint" />
          </mxGeometry>
        </mxCell>
        <mxCell id="axHq2Q7Sg5OyybKyalKu-110" value="&lt;span style=&quot;font-size: 11px; background-color: rgb(24, 20, 29);&quot;&gt;If User Use The Search&amp;nbsp;&lt;/span&gt;&lt;div&gt;&lt;span style=&quot;font-size: 11px; background-color: rgb(24, 20, 29);&quot;&gt;Bar On Left&lt;/span&gt;&lt;/div&gt;" style="text;html=1;align=left;verticalAlign=middle;resizable=0;points=[];autosize=1;strokeColor=none;fillColor=none;" vertex="1" parent="1">
          <mxGeometry x="120" y="420" width="140" height="40" as="geometry" />
        </mxCell>
        <mxCell id="axHq2Q7Sg5OyybKyalKu-111" value="&lt;span style=&quot;font-size: 11px; background-color: rgb(24, 20, 29);&quot;&gt;Display Navigation Bar&lt;/span&gt;&lt;div&gt;&lt;span style=&quot;font-size: 11px; background-color: rgb(24, 20, 29);&quot;&gt;and Search Filter&lt;/span&gt;&lt;/div&gt;" style="text;html=1;align=center;verticalAlign=middle;resizable=0;points=[];autosize=1;strokeColor=none;fillColor=none;" vertex="1" parent="1">
          <mxGeometry x="135" y="470" width="130" height="40" as="geometry" />
        </mxCell>
        <mxCell id="axHq2Q7Sg5OyybKyalKu-112" value="" style="html=1;verticalAlign=bottom;endArrow=block;edgeStyle=elbowEdgeStyle;elbow=vertical;curved=0;rounded=0;" edge="1" parent="1">
          <mxGeometry relative="1" as="geometry">
            <mxPoint x="285" y="506" as="sourcePoint" />
            <Array as="points" />
            <mxPoint x="115" y="506" as="targetPoint" />
          </mxGeometry>
        </mxCell>
      </root>
    </mxGraphModel>
  </diagram>
</mxfile>
